<svg width="105" height="58" viewBox="0 0 105 58" fill="none" xmlns="http://www.w3.org/2000/svg">
<path d="M79.94 56.78C76.34 56.78 73.08 56.36 70.16 55.52C67.28 54.68 64.78 53.42 62.66 51.74C60.58 50.06 58.98 47.98 57.86 45.5C56.74 43.02 56.18 40.16 56.18 36.92C56.18 33.64 56.76 30.74 57.92 28.22C59.12 25.66 60.8 23.5 62.96 21.74C65.16 19.98 67.76 18.66 70.76 17.78C73.8 16.86 77.16 16.4 80.84 16.4C85.2 16.4 88.96 17.02 92.12 18.26C95.28 19.46 97.76 21.16 99.56 23.36C101.4 25.56 102.44 28.18 102.68 31.22H95C94.48 29.62 93.62 28.24 92.42 27.08C91.26 25.88 89.72 24.96 87.8 24.32C85.88 23.64 83.56 23.3 80.84 23.3C77.36 23.3 74.38 23.86 71.9 24.98C69.46 26.1 67.6 27.68 66.32 29.72C65.04 31.76 64.4 34.16 64.4 36.92C64.4 39.6 64.96 41.92 66.08 43.88C67.2 45.8 68.92 47.28 71.24 48.32C73.6 49.36 76.6 49.88 80.24 49.88C83.04 49.88 85.5 49.52 87.62 48.8C89.78 48.04 91.58 47.04 93.02 45.8C94.46 44.52 95.48 43.1 96.08 41.54L99.2 40.4C98.68 45.56 96.72 49.58 93.32 52.46C89.96 55.34 85.5 56.78 79.94 56.78ZM97.16 56C97.16 54.76 97.24 53.34 97.4 51.74C97.56 50.1 97.76 48.46 98 46.82C98.24 45.14 98.46 43.6 98.66 42.2H80.9V37.1H104.06V56H97.16Z" fill="#303034"/>
<path d="M49.92 42.02C49.56 45.14 48.46 47.8 46.62 50C44.78 52.2 42.28 53.88 39.12 55.04C35.96 56.2 32.2 56.78 27.84 56.78C24.2 56.78 20.86 56.36 17.82 55.52C14.82 54.68 12.22 53.42 10.02 51.74C7.86 50.06 6.18 47.98 4.98 45.5C3.78 42.98 3.18 40.04 3.18 36.68C3.18 33.32 3.78 30.38 4.98 27.86C6.18 25.34 7.86 23.24 10.02 21.56C12.22 19.84 14.82 18.56 17.82 17.72C20.86 16.84 24.2 16.4 27.84 16.4C32.2 16.4 35.96 17 39.12 18.2C42.32 19.4 44.84 21.12 46.68 23.36C48.52 25.56 49.6 28.24 49.92 31.4H42C41.48 29.72 40.6 28.28 39.36 27.08C38.16 25.84 36.6 24.9 34.68 24.26C32.76 23.62 30.48 23.3 27.84 23.3C24.56 23.3 21.68 23.82 19.2 24.86C16.72 25.86 14.8 27.36 13.44 29.36C12.08 31.32 11.4 33.76 11.4 36.68C11.4 39.56 12.08 41.98 13.44 43.94C14.8 45.9 16.72 47.4 19.2 48.44C21.68 49.44 24.56 49.94 27.84 49.94C30.48 49.94 32.74 49.62 34.62 48.98C36.54 48.34 38.1 47.42 39.3 46.22C40.54 45.02 41.44 43.62 42 42.02H49.92Z" fill="#303034"/>
</svg>
